<svg height="56" viewBox="0 0 100 56" width="100" xmlns="http://www.w3.org/2000/svg"><defs><mask height="56" id="mask" width="100" x="0" y="0"><rect fill="white" height="56" width="100" x="0" y="0"></rect><path class="Header_mask__C5Stf" d="M100,18.86h-26.79l2.55,12.65-2.55,12.65h26.79v-.15h-7.92l-4.61-6.42,3.89-5.14,8.64,11.56M73.7,19.32h7.93l4.62,6.45-3.89,5.12-8.65-11.57ZM80.97,44h-7.27l19.1-24.68,7.17.04-19,24.64Z" fill="black"></path></mask></defs><path d="M14.12,28.74c.73.03,1.45-.08,2.13-.33.68-.25,1.3-.63,1.82-1.11.52-.49.94-1.07,1.23-1.71s.43-1.34.43-2.04-.15-1.4-.43-2.04c-.28-.65-.7-1.23-1.23-1.71-.52-.49-1.14-.86-1.82-1.11-.68-.25-1.4-.36-2.13-.33h-7.28v10.4h7.28ZM0,12.5h14.12c7.63,0,12.63,4.74,12.63,11.12s-5,10.97-12.63,10.97h-7.28v9.42H0V12.5Z" fill="#0f0927"></path><path d="M29.47,30.69c0-12.94,12.23-12.56,16.79-11.46l-.79,5.85c-5.5-1.63-9.56.72-9.56,5.08v13.85h-6.44v-13.32Z" fill="#0f0927"></path><path d="M66.72,29.11c-.38-1.41-1.24-2.67-2.44-3.56-1.2-.89-2.66-1.38-4.18-1.38s-2.98.48-4.18,1.38c-1.2.89-2.05,2.14-2.44,3.56h13.22ZM60.08,18.86c8.47,0,14.46,6.8,13.17,15h-19.86c.36,1.55,1.27,2.93,2.57,3.89,1.3.96,2.92,1.45,4.56,1.38,1.32.03,2.63-.28,3.78-.92,1.15-.63,2.1-1.56,2.75-2.67l5.3,2.3c-1.19,2.06-2.94,3.78-5.06,4.95-2.12,1.17-4.53,1.77-6.98,1.71-7.73,0-13.62-5.56-13.62-12.84-.02-1.7.31-3.38.98-4.95.67-1.57,1.65-3,2.9-4.19,1.25-1.19,2.73-2.13,4.36-2.76,1.63-.63,3.38-.93,5.13-.89" fill="#0f0927"></path><path d="M83.01,31.79l-9.31-12.46h7.93l5.35,7.48,5.5-7.48h7.53l-9.31,12.22,9.31,12.46h-7.92l-5.4-7.52-5.5,7.52h-7.48l9.31-12.22Z" fill="#0f0927" mask="url(#mask)"></path><polygon fill="#5c19ae" points="72.69 44.51 92.22 18.84 101.01 18.84 81.53 44.51 72.69 44.51"></polygon></svg>